<svg width="800" height="320" viewBox="0 0 800 320" fill="none" xmlns="http://www.w3.org/2000/svg">
<g clip-path="url(#clip0_234_55143)">
<rect width="800" height="320" rx="16" fill="#F2F6F6"/>
<path d="M529.712 316.426C531.903 316.426 533.697 318.205 533.505 320.388C533.102 324.972 532.002 329.476 530.235 333.741C527.961 339.231 524.628 344.219 520.426 348.421C516.225 352.622 511.237 355.955 505.747 358.229C500.257 360.503 494.374 361.673 488.432 361.673C482.49 361.673 476.606 360.503 471.116 358.229C465.626 355.955 460.638 352.622 456.437 348.421C452.235 344.219 448.902 339.231 446.628 333.741C444.861 329.475 443.761 324.972 443.358 320.388C443.166 318.205 444.96 316.426 447.151 316.426L488.432 316.426H529.712Z" fill="#FF881B"/>
<rect x="636.675" y="293.58" width="61.983" height="61.983" rx="1.98345" transform="rotate(-13.6686 636.675 293.58)" fill="#FF881B"/>
<rect x="640.064" y="307.511" width="47.6463" height="47.6463" rx="1.52468" transform="rotate(-13.6686 640.064 307.511)" fill="#FFB651"/>
<rect x="643.999" y="323.694" width="30.9915" height="30.9915" rx="0.991727" transform="rotate(-13.6686 643.999 323.694)" fill="#FF74BE"/>
<rect x="703.673" y="222.706" width="55.5367" height="45.6194" rx="18.099" fill="#FF74BE"/>
<rect x="592.599" y="222.706" width="55.5367" height="45.6194" rx="18.099" fill="#FF74BE"/>
<rect x="648.136" y="222.706" width="55.5367" height="45.6194" rx="18.099" fill="#FF74BE"/>
<rect x="444.583" y="269.016" width="61.9829" height="61.9829" rx="1.98345" transform="rotate(-45 444.583 269.016)" fill="#2DF8BB"/>
<rect x="454.721" y="279.153" width="47.6463" height="47.6463" rx="1.52468" transform="rotate(-45 454.721 279.153)" fill="#FF74BE"/>
<rect x="466.498" y="290.93" width="30.9915" height="30.9915" rx="0.991727" transform="rotate(-45 466.498 290.93)" fill="#645FFF"/>
<rect width="94.2141" height="62.8643" rx="1.98345" transform="matrix(1 0 0 -1 533.432 361.179)" fill="#2DF8BB"/>
<rect opacity="0.1" width="14.8759" height="62.8643" transform="matrix(1 0 0 -1 573.101 361.179)" fill="#FAF6F3"/>
<rect width="14.8759" height="62.8643" transform="matrix(1 0 0 -1 573.101 361.179)" fill="#645FFF"/>
<rect x="536.07" y="171.138" width="91.7348" height="47.107" rx="1.98345" fill="#FF74BE"/>
<rect x="630.284" y="130.725" width="91.7348" height="91.9827" rx="1.98345" fill="#645FFF"/>
<rect x="724.251" y="268.327" width="91.7348" height="91.7348" rx="1.98345" fill="#FF74BE"/>
<rect opacity="0.2" x="761.688" y="268.327" width="15.6197" height="91.7348" rx="1.98345" fill="#FAF6F3"/>
<rect x="724.251" y="284.69" width="91.7348" height="13.3883" rx="1.98345" fill="#FE8EC9"/>
<path d="M721.436 163.598C721.386 163.053 721.584 162.49 721.945 162.079C774.867 102.018 744.595 104.175 811.966 153.846C812.423 154.183 812.741 154.718 812.793 155.284L822.529 261.797C822.628 262.888 821.825 263.853 820.734 263.953L733.331 271.942C732.24 272.042 731.275 271.238 731.175 270.147L721.436 163.598Z" fill="#645FFF"/>
<circle cx="674.665" cy="100.573" r="46.2393" fill="#2DF8BB"/>
<circle cx="564.412" cy="194.161" r="7.65292" fill="#F2F6F6"/>
<rect x="628.549" y="26.3174" width="95.4537" height="28.0163" rx="1.98345" fill="#FF881B"/>
<rect x="668.466" y="26.3174" width="15.6197" height="28.0163" rx="1.98345" fill="#FAF6F3"/>
<path opacity="0.3" d="M771.563 209.909C772.261 207.919 775.075 207.919 775.774 209.909L776.128 210.919C776.661 212.438 778.577 212.91 779.755 211.813L780.538 211.084C782.081 209.646 784.573 210.954 784.266 213.041L784.111 214.099C783.877 215.692 785.354 217 786.906 216.576L787.939 216.294C789.973 215.738 791.572 218.055 790.331 219.76L789.701 220.625C788.754 221.926 789.454 223.771 791.026 224.117L792.071 224.347C794.13 224.801 794.47 227.595 792.578 228.528L791.619 229.001C790.175 229.713 789.938 231.672 791.168 232.709L791.987 233.398C793.6 234.757 792.602 237.388 790.494 237.336L789.424 237.309C787.815 237.269 786.694 238.893 787.302 240.383L787.706 241.374C788.503 243.326 786.397 245.193 784.554 244.166L783.62 243.645C782.214 242.862 780.466 243.779 780.312 245.381L780.21 246.446C780.008 248.546 777.276 249.219 776.121 247.454L775.536 246.558C774.655 245.212 772.681 245.212 771.801 246.558L771.215 247.454C770.061 249.219 767.328 248.546 767.126 246.446L767.024 245.381C766.87 243.779 765.123 242.862 763.717 243.645L762.782 244.166C760.94 245.193 758.833 243.326 759.63 241.374L760.034 240.383C760.642 238.893 759.521 237.269 757.913 237.309L756.843 237.336C754.734 237.388 753.736 234.757 755.349 233.398L756.168 232.709C757.399 231.672 757.161 229.713 755.718 229.001L754.758 228.528C752.867 227.595 753.206 224.801 755.266 224.347L756.311 224.117C757.882 223.771 758.582 221.926 757.635 220.625L757.005 219.76C755.764 218.055 757.363 215.738 759.398 216.294L760.43 216.576C761.982 217 763.459 215.692 763.226 214.099L763.07 213.041C762.764 210.954 765.256 209.646 766.799 211.084L767.582 211.813C768.759 212.91 770.675 212.438 771.208 210.919L771.563 209.909Z" fill="#FAF6F3"/>
<path d="M762.772 133.342C763.055 132.536 764.195 132.536 764.478 133.342L764.621 133.751C764.837 134.366 765.613 134.557 766.09 134.113L766.407 133.818C767.032 133.235 768.042 133.765 767.917 134.61L767.854 135.039C767.76 135.684 768.358 136.214 768.987 136.042L769.405 135.928C770.229 135.703 770.876 136.641 770.374 137.331L770.119 137.682C769.735 138.209 770.018 138.956 770.655 139.096L771.078 139.189C771.912 139.373 772.05 140.504 771.284 140.882L770.895 141.074C770.311 141.363 770.214 142.156 770.713 142.576L771.044 142.855C771.698 143.405 771.293 144.471 770.44 144.45L770.006 144.439C769.355 144.423 768.901 145.08 769.147 145.684L769.311 146.085C769.633 146.876 768.78 147.632 768.034 147.216L767.656 147.005C767.086 146.688 766.379 147.059 766.316 147.708L766.275 148.139C766.193 148.99 765.086 149.262 764.619 148.548L764.382 148.185C764.025 147.639 763.226 147.639 762.869 148.185L762.632 148.548C762.164 149.262 761.058 148.99 760.976 148.139L760.934 147.708C760.872 147.059 760.164 146.688 759.595 147.005L759.216 147.216C758.47 147.632 757.617 146.876 757.94 146.085L758.103 145.684C758.35 145.08 757.896 144.423 757.244 144.439L756.811 144.45C755.957 144.471 755.553 143.405 756.206 142.855L756.538 142.576C757.036 142.156 756.94 141.363 756.355 141.074L755.967 140.882C755.201 140.505 755.338 139.373 756.172 139.189L756.595 139.096C757.232 138.956 757.515 138.209 757.132 137.682L756.877 137.331C756.374 136.641 757.022 135.703 757.846 135.928L758.264 136.042C758.892 136.214 759.491 135.684 759.396 135.039L759.333 134.61C759.209 133.765 760.218 133.235 760.843 133.818L761.16 134.113C761.637 134.557 762.413 134.366 762.629 133.751L762.772 133.342Z" fill="#9C97F6"/>
<path d="M799.378 145.833C774.75 139.082 754.347 112.024 761.098 87.3955C767.848 62.7666 799.196 49.8931 823.824 56.6437C848.453 63.3943 862.947 88.8323 856.196 113.461C849.445 138.09 824.007 152.583 799.378 145.833Z" fill="#FFB651"/>
<path d="M797.184 134.148C778.249 128.958 755.908 106.331 761.098 87.3957C766.288 68.4605 797.044 60.3873 815.979 65.5773C834.914 70.7673 846.057 90.3246 840.867 109.26C835.677 128.195 816.12 139.338 797.184 134.148Z" fill="#FF881B"/>
<path d="M789.456 124.135C774.576 120.056 757.02 102.276 761.098 87.396C765.176 72.5163 789.345 66.1722 804.225 70.2506C819.105 74.329 827.861 89.6976 823.782 104.577C819.704 119.457 804.335 128.213 789.456 124.135Z" fill="#FFB651"/>
<path d="M782.242 114.222C771.325 111.23 758.423 98.2651 761.389 87.4473C764.354 76.6295 782.063 72.0551 792.979 75.0472C803.896 78.0393 810.341 89.2344 807.376 100.052C804.411 110.87 793.158 117.214 782.242 114.222Z" fill="#FF881B"/>
<path d="M591.68 63.5234C595.314 64.6087 597.409 68.4492 596.009 71.9743C593.07 79.3786 589.013 86.304 583.969 92.5045C577.477 100.484 569.478 107.107 560.427 111.995C551.376 116.883 541.451 119.94 531.218 120.993C520.986 122.045 510.646 121.071 500.79 118.128C490.933 115.184 481.753 110.328 473.774 103.836C465.794 97.3449 459.171 89.3453 454.283 80.2944C449.395 71.2434 446.338 61.3183 445.286 51.0857C444.468 43.1345 444.874 35.1186 446.476 27.3151C447.239 23.5999 451.097 21.5371 454.731 22.6224L523.205 43.0729L591.68 63.5234Z" fill="#2DF8BB"/>
<path d="M600.892 32.6792C604.527 33.7645 606.621 37.6049 605.222 41.1301C602.282 48.5344 598.225 55.4597 593.181 61.6603C586.69 69.6399 578.69 76.2627 569.639 81.1507C560.588 86.0387 550.663 89.0961 540.431 90.1484C530.198 91.2006 519.858 90.2271 510.002 87.2834C500.146 84.3398 490.966 79.4836 482.986 72.9921C475.007 66.5007 468.384 58.5011 463.496 49.4501C458.608 40.3991 455.55 30.474 454.498 20.2415C453.68 12.2903 454.086 4.27438 455.689 -3.52915C456.452 -7.24434 460.309 -9.30717 463.943 -8.22181L532.418 12.2287L600.892 32.6792Z" fill="#FF74BE"/>
<path d="M612.806 -7.21293C616.44 -6.12758 618.535 -2.28716 617.135 1.23796C614.196 8.64227 610.139 15.5677 605.095 21.7682C598.603 29.7478 590.604 36.3706 581.553 41.2586C572.502 46.1466 562.577 49.204 552.344 50.2563C542.112 51.3085 531.772 50.335 521.916 47.3914C512.059 44.4477 502.879 39.5915 494.9 33.1C486.92 26.6086 480.297 18.609 475.409 9.55802C470.521 0.507053 467.464 -9.41805 466.412 -19.6506C465.594 -27.6018 466 -35.6177 467.602 -43.4212C468.365 -47.1364 472.223 -49.1993 475.857 -48.1139L544.331 -27.6634L612.806 -7.21293Z" fill="#FF881B"/>
<rect x="787.466" y="-10.1997" width="21.0547" height="88.8031" rx="10.5273" transform="rotate(105.926 787.466 -10.1997)" fill="#645FFF"/>
<path d="M770.304 6.83677C776.588 8.62962 780.228 15.1766 778.435 21.4598V21.4598C776.985 26.5408 772.342 30.0444 767.058 30.0444L728.614 30.0444C724.644 30.0444 720.784 28.7389 717.628 26.3289L697.277 10.7848C693.243 7.70399 691.507 2.46812 692.899 -2.41273V-2.41273C694.77 -8.96876 701.601 -12.767 708.157 -10.8963L770.304 6.83677Z" fill="#FF74BE"/>
<rect width="10.6401" height="44.5371" rx="5.32005" transform="matrix(0.0255799 0.999673 -0.999731 0.0231827 625.449 122.232)" fill="#2DF8BB"/>
<rect width="10.6401" height="44.5371" rx="5.32005" transform="matrix(0.0255799 0.999673 -0.999731 0.0231827 625.723 132.888)" fill="#FFB651"/>
<rect width="10.6401" height="44.5371" rx="5.32005" transform="matrix(0.0255799 0.999673 -0.999731 0.0231827 625.997 143.543)" fill="#FF881B"/>
<rect width="10.7921" height="44.5371" rx="5.39605" transform="matrix(0.0255799 0.999673 -0.999731 0.0231827 626.27 154.199)" fill="#645FFF"/>
<path d="M620.469 165.148C623.826 165.07 626.617 167.728 626.703 171.085V171.085C626.772 173.786 625.05 176.205 622.476 177.021L607.18 181.873C603.319 183.097 599.156 182.989 595.358 181.567L586.317 178.182C583.887 177.272 582.251 174.977 582.185 172.385V172.385C582.095 168.881 584.864 165.973 588.369 165.892L620.469 165.148Z" fill="#FF74BE"/>
<path d="M541.878 174.845L553.541 141.062" stroke="#FF74BE" stroke-width="8.84797" stroke-linecap="round"/>
<path d="M552.335 144.682L553.542 141.062" stroke="#645FFF" stroke-width="8.84797" stroke-linecap="round"/>
<circle cx="587.738" cy="194.161" r="7.65292" fill="#F2F6F6"/>
<rect x="533.591" y="220.972" width="94.2141" height="86.1908" rx="1.98345" fill="#645FFF"/>
<rect opacity="0.1" x="573.26" y="220.972" width="14.8759" height="86.1908" fill="#FAF6F3"/>
<rect x="573.26" y="220.972" width="14.8759" height="86.1908" fill="#2DF8BB"/>
<rect x="533.591" y="239.03" width="94.2141" height="9.10466" fill="#2DF8BB"/>
<rect x="371.126" y="226.727" width="16.0872" height="118.241" rx="1.98345" fill="#FFB651"/>
<path d="M25.4991 195.831C25.0309 196.318 24.2104 196.116 24.0222 195.467L13.0285 157.549C12.8403 156.9 13.4255 156.29 14.0819 156.452L52.4167 165.89C53.0731 166.052 53.3084 166.863 52.8402 167.351L25.4991 195.831Z" fill="#FF74BE"/>
<rect x="71.0928" y="120.985" width="67.812" height="67.812" rx="2.16998" transform="rotate(-167.967 71.0928 120.985)" fill="#2DF8BB"/>
<rect x="74.3623" y="105.645" width="52.127" height="52.127" rx="1.66807" transform="rotate(-167.967 74.3623 105.645)" fill="#FF74BE"/>
<rect x="78.1611" y="87.8242" width="33.906" height="33.906" rx="1.08499" transform="rotate(-167.967 78.1611 87.8242)" fill="#736EF7"/>
<path d="M393.491 137.519C395.422 134.461 399.493 133.594 402.503 135.6L402.665 135.709C405.622 137.68 406.421 141.675 404.449 144.632L360.415 210.675C359.388 212.217 357.658 213.143 355.805 213.143V213.143C351.441 213.143 348.79 208.333 351.119 204.643L393.491 137.519Z" fill="#2DF8BB"/>
<rect x="314.313" y="205.009" width="55.5367" height="58.7184" rx="18.099" fill="#FF74BE"/>
<rect x="203.241" y="205.009" width="55.5367" height="58.7184" rx="18.099" fill="#FF74BE"/>
<rect x="258.777" y="205.009" width="55.5367" height="58.7184" rx="18.099" fill="#FF74BE"/>
<rect x="314.053" y="212.758" width="55.5367" height="43.7301" rx="18.099" fill="#2DF8BB"/>
<rect x="202.98" y="212.758" width="55.5367" height="43.7301" rx="18.099" fill="#2DF8BB"/>
<rect x="258.516" y="212.758" width="55.5367" height="43.7301" rx="18.099" fill="#2DF8BB"/>
<rect x="314.053" y="220.801" width="55.5367" height="27.6428" rx="13.8214" fill="#FF74BE"/>
<rect x="202.98" y="220.801" width="55.5367" height="27.6428" rx="13.8214" fill="#FF74BE"/>
<rect x="258.516" y="220.801" width="55.5367" height="27.6428" rx="13.8214" fill="#FF74BE"/>
<rect x="290.183" y="274.184" width="55.5367" height="58.7184" rx="18.099" fill="#918CFC"/>
<rect x="179.11" y="274.184" width="55.5367" height="58.7184" rx="18.099" fill="#918CFC"/>
<rect x="234.646" y="274.184" width="55.5367" height="58.7184" rx="18.099" fill="#918CFC"/>
<rect x="289.922" y="281.933" width="55.5367" height="43.7301" rx="18.099" fill="#645FFF"/>
<rect x="178.849" y="281.933" width="55.5367" height="43.7301" rx="18.099" fill="#645FFF"/>
<rect x="234.386" y="281.933" width="55.5367" height="43.7301" rx="18.099" fill="#645FFF"/>
<rect x="289.922" y="289.977" width="55.5367" height="27.6428" rx="13.8214" fill="#918CFC"/>
<rect x="178.849" y="289.977" width="55.5367" height="27.6428" rx="13.8214" fill="#918CFC"/>
<rect x="234.386" y="289.977" width="55.5367" height="27.6428" rx="13.8214" fill="#918CFC"/>
<path d="M180.611 64.3965C182.68 63.6745 184.96 64.7632 185.498 66.887C186.628 71.3478 187.073 75.9627 186.811 80.5724C186.473 86.5048 184.97 92.3126 182.388 97.6642C179.806 103.016 176.195 107.806 171.761 111.762C167.327 115.718 162.158 118.762 156.548 120.721C150.938 122.679 144.997 123.513 139.065 123.175C133.132 122.837 127.325 121.334 121.973 118.752C116.621 116.17 111.831 112.559 107.875 108.125C104.801 104.68 102.277 100.791 100.386 96.5953C99.486 94.598 100.593 92.3267 102.662 91.6047L141.637 78.0006L180.611 64.3965Z" fill="#FF881B"/>
<rect x="84.6143" y="47.6895" width="61.983" height="61.983" rx="1.98345" transform="rotate(-64.2416 84.6143 47.6895)" fill="#2DF8BB"/>
<rect x="97.5259" y="53.9199" width="47.6463" height="47.6463" rx="1.52468" transform="rotate(-64.2416 97.5259 53.9199)" fill="#FF74BE"/>
<rect x="112.526" y="61.1577" width="30.9915" height="30.9915" rx="0.991727" transform="rotate(-64.2416 112.526 61.1577)" fill="#645FFF"/>
<rect opacity="0.1" x="183.098" y="179.437" width="14.8759" height="140.825" fill="#FAF6F3"/>
<rect x="143.251" y="204.171" width="94.2141" height="140.825" rx="1.98345" fill="#645FFF"/>
<rect x="182.92" y="204.171" width="14.8759" height="140.825" fill="#FF74BE"/>
<rect x="210.219" y="218.683" width="15.2829" height="24.1308" rx="6.43489" fill="#FFB651"/>
<rect x="157.936" y="221.9" width="15.2829" height="24.1308" rx="6.43489" fill="#FFB651"/>
<rect x="159.544" y="236.379" width="12.0654" height="8.84797" rx="4.42399" fill="#FF74BE"/>
<rect x="211.828" y="232.357" width="12.0654" height="8.84797" rx="4.42399" fill="#FF74BE"/>
<rect x="142.653" y="278.206" width="94.1103" height="53.0878" fill="#FF74BE"/>
<rect x="142.653" y="296.706" width="94.1103" height="16.0872" fill="#645FFF"/>
<rect x="146.194" y="152.367" width="91.7348" height="47.107" rx="1.98345" fill="#FFB651"/>
<path d="M240.122 91.1734C240.122 90.078 241.01 89.1899 242.105 89.1899H330.184C331.15 89.1899 331.976 89.886 332.139 90.8382L351.289 202.514C351.527 203.9 350.288 205.086 348.914 204.788L241.684 181.512C240.772 181.314 240.122 180.507 240.122 179.574V91.1734Z" fill="#645FFF"/>
<path d="M240.122 90.8783C240.122 89.9458 240.877 89.1899 241.81 89.1899H316.783C317.605 89.1899 318.308 89.7824 318.447 90.5929L334.748 185.651C334.95 186.831 333.895 187.84 332.725 187.587L241.452 167.774C240.675 167.606 240.122 166.919 240.122 166.124V90.8783Z" fill="#FFB651"/>
<path d="M240.122 90.5213C240.122 89.786 240.718 89.1899 241.453 89.1899H300.576C301.225 89.1899 301.779 89.6572 301.889 90.2963L314.743 165.259C314.903 166.189 314.071 166.986 313.149 166.785L241.171 151.161C240.558 151.029 240.122 150.487 240.122 149.86V90.5213Z" fill="#FF74BE"/>
<rect x="334.126" y="226.727" width="91.6972" height="118.241" rx="1.98345" fill="#FF881B"/>
<rect x="334.088" y="243.155" width="91.7348" height="13.3883" rx="1.98345" fill="#FFB651"/>
<rect x="334.126" y="313.598" width="91.7348" height="13.3883" rx="1.98345" fill="#FFB651"/>
<path d="M214.335 129.324C214.335 141.374 204.485 151.142 192.333 151.142C180.182 151.142 170.331 141.374 170.331 129.324C174.73 116.68 180.182 93.498 192.333 93.498C204.485 93.498 209.564 117.299 214.335 129.324Z" fill="#645FFF"/>
<path d="M205.487 138.098C205.487 145.302 199.597 151.142 192.333 151.142C185.068 151.142 179.179 145.302 179.179 138.098C181.809 130.538 185.068 116.679 192.333 116.679C199.597 116.679 202.634 130.909 205.487 138.098Z" fill="#918CFC"/>
<path d="M199.404 144.13C199.404 148.002 196.238 151.142 192.333 151.142C188.428 151.142 185.262 148.002 185.262 144.13C186.676 140.066 188.428 132.616 192.333 132.616C196.238 132.616 197.871 140.265 199.404 144.13Z" fill="#645FFF"/>
<circle cx="284.502" cy="42.9512" r="46.2393" fill="#2DF8BB"/>
<path d="M317.863 42.9508C317.863 61.3753 306.667 77.1156 288.242 77.1156C269.818 77.1156 251.142 61.3753 251.142 42.9508C251.142 24.5263 266.078 9.59033 284.502 9.59033C302.927 9.59033 317.863 24.5263 317.863 42.9508Z" fill="#645FFF"/>
<path d="M-61.1484 99.9835C-85.7773 93.233 -106.18 66.1752 -99.4292 41.5463C-92.6786 16.9175 -61.3313 4.04397 -36.7024 10.7946C-12.0735 17.5451 2.41966 42.9832 -4.33093 67.6121C-11.0815 92.2409 -36.5196 106.734 -61.1484 99.9835Z" fill="#FFB651"/>
<path d="M63.0725 -1.25727C83.2259 14.4269 91.6842 47.2421 76.0001 67.3955C60.3159 87.5488 26.4284 87.4086 6.27503 71.7244C-13.8783 56.0402 -17.5013 26.9882 -1.81708 6.83483C13.8671 -13.3185 42.9192 -16.9415 63.0725 -1.25727Z" fill="#9C97F6"/>
<path d="M60.6151 10.3751C76.1094 22.4334 88.0584 51.9008 76.0001 67.3951C63.9418 82.8894 32.4423 78.5432 16.948 66.4849C1.45368 54.4266 -1.33172 32.0908 10.7266 16.5964C22.7849 1.10214 45.1208 -1.68327 60.6151 10.3751Z" fill="#645FFF"/>
<path d="M63.9102 22.5873C76.0859 32.0631 85.4758 55.2192 76.0001 67.395C66.5243 79.5708 41.7713 76.1555 29.5955 66.6798C17.4197 57.2041 15.2309 39.652 24.7066 27.4762C34.1823 15.3005 51.7344 13.1116 63.9102 22.5873Z" fill="#9C97F6"/>
<path d="M66.7679 34.5088C75.7005 41.4606 82.6402 58.3835 75.7511 67.2356C68.8621 76.0876 50.7532 73.5166 41.8205 66.5648C32.8878 59.6131 31.2311 46.8016 38.1202 37.9495C45.0092 29.0975 57.8352 27.5571 66.7679 34.5088Z" fill="#645FFF"/>
<path d="M-63.9216 268.874C-72.1683 264.275 -75.7375 254.258 -72.2374 245.488C-49.2514 187.896 -32.8213 152 3.79073 109.178C7.95977 104.301 14.4229 101.975 20.7105 103.25C64.4823 112.123 88.7572 130.222 123.677 160.8C130.331 166.626 131.97 176.327 127.662 184.051L55.3069 313.795C50.2396 322.882 38.7656 326.14 29.679 321.073L-63.9216 268.874Z" fill="#FF74BE"/>
<path d="M-60.4026 287.977C-68.6492 283.378 -72.2185 273.362 -68.7184 264.592C-45.7324 206.999 -29.3022 171.103 7.30978 128.281C11.4788 123.405 17.942 121.079 24.2295 122.353C68.0013 131.226 92.2762 149.326 127.196 179.903C133.85 185.729 135.489 195.431 131.181 203.155L58.826 332.899C53.7586 341.985 42.2846 345.244 33.1981 340.176L-60.4026 287.977Z" fill="#2DF8BB"/>
<path d="M-46.5917 292.006C-54.7448 287.459 -58.3438 277.606 -55.0047 268.888C-35.5271 218.036 -21.1118 186.037 11.8761 148.898C16.1771 144.056 22.7754 141.91 29.08 143.393C71.8541 153.451 96.259 171.086 131.39 200.546C138.284 206.327 140.062 216.205 135.679 224.062L72.7132 336.97C67.6459 346.057 56.1718 349.315 47.0853 344.247L-46.5917 292.006Z" fill="#645FFF"/>
<path d="M396.399 105.147C396.791 101.647 399.923 99.1122 403.428 99.4589L420.549 101.153C423.995 101.493 426.553 104.499 426.338 107.954L419.325 221.092C419.115 224.485 416.302 227.129 412.902 227.129L389.949 227.129C386.112 227.129 383.128 223.792 383.554 219.979L396.399 105.147Z" fill="#FF74BE"/>
</g>
<defs>
<clipPath id="clip0_234_55143">
<rect width="800" height="320" rx="16" fill="white"/>
</clipPath>
</defs>
</svg>
