<svg width="320" height="320" viewBox="0 0 320 320" fill="none" xmlns="http://www.w3.org/2000/svg">
<g clip-path="url(#clip0_363_14646)">
<rect width="320" height="320" rx="16" fill="#645FFF"/>
<path d="M85.3801 175.473C68.8698 199.222 32.363 202.4 8.61406 185.889C-15.1349 169.379 -21.003 136.742 -4.49271 112.994C12.0176 89.2445 44.6542 83.3764 68.4032 99.8868C92.1522 116.397 101.89 151.724 85.3801 175.473Z" fill="#FF74BE"/>
<path d="M337.097 225.693C338.457 254.586 311.676 284.563 282.784 285.922C261.889 276.42 229.121 259.731 227.761 230.839C226.402 201.947 248.721 177.423 277.613 176.063C306.505 174.703 335.738 196.801 337.097 225.693Z" fill="#2DF8BB"/>
<path d="M284.322 180.99V180.99C284.895 193.16 301.394 196.413 306.543 185.371V185.371V185.371C301.394 196.413 314.493 206.96 324.183 199.576V199.576V199.576C314.493 206.96 321.189 222.387 333.201 220.352V220.352V220.352C321.189 222.387 319.949 239.159 331.531 242.939V242.939V242.939C319.949 239.159 311.057 253.433 319.556 262.162V262.162V262.162C311.057 253.433 296.55 261.94 300.018 273.619V273.619V273.619C296.55 261.94 279.751 262.73 277.395 274.684V274.684V274.684C279.751 262.73 264.509 255.623 256.868 265.113V265.113V265.113C264.509 255.623 254.316 242.248 243.14 247.099V247.099V247.099C254.316 242.248 251.506 225.667 239.356 224.768V224.768V224.768C251.506 225.667 256.724 209.679 246.383 203.237V203.237V203.237C256.724 209.679 268.773 197.948 262.611 187.438V187.438V187.438C268.773 197.948 284.895 193.16 284.322 180.99V180.99Z" fill="#FF74BE"/>
<path d="M298.576 198.146V198.146C298.963 206.374 309.941 208.865 313.842 201.61L314.293 200.769V200.769C310.578 207.68 318.594 214.952 325.111 210.585L326.726 209.503V209.503C320.361 213.768 324.232 223.701 331.804 222.534L333.025 222.346L332.59 222.413C324.993 223.584 324.348 234.281 331.749 236.357V236.357L330.035 235.876C322.604 233.793 317.45 243.166 323.189 248.325V248.325L321.957 247.218C315.985 241.85 306.768 247.89 309.306 255.509V255.509V255.509C306.647 247.527 295.179 248.066 293.281 256.263V256.263V256.263C295.093 248.439 285.349 243.291 279.907 249.197L278.785 250.415V250.415C284.014 244.74 278.002 235.892 270.8 238.664L269.139 239.303V239.303C276.312 236.542 274.665 225.952 266.992 225.501L266.552 225.475L267.785 225.547C275.433 225.998 278.355 215.745 271.617 212.097V212.097L273.326 213.022C280.226 216.758 287.522 208.765 283.175 202.234V202.234L283.703 203.028C288.268 209.885 298.963 206.374 298.576 198.146V198.146Z" fill="#2DF8BB"/>
<path d="M41.5482 106.431V106.431C41.9355 114.659 52.9134 117.15 56.8138 109.895L57.2655 109.054V109.054C53.5505 115.965 61.5657 123.237 68.0836 118.87L69.698 117.788V117.788C63.3333 122.053 67.2045 131.986 74.7766 130.819L75.9976 130.631L75.5622 130.698C67.9652 131.869 67.3199 142.567 74.7211 144.642V144.642L73.0067 144.161C65.5766 142.078 60.4218 151.452 66.161 156.61V156.61L64.9296 155.503C58.9568 150.135 49.7397 156.175 52.2782 163.794V163.794V163.794C49.6187 155.812 38.1513 156.351 36.2532 164.548V164.548V164.548C38.0649 156.724 28.3213 151.577 22.8791 157.482L21.7571 158.7V158.7C26.9864 153.025 20.974 144.177 13.7724 146.949L12.1108 147.589V147.589C19.2844 144.827 17.6372 134.238 9.9638 133.786L9.52409 133.76L10.7573 133.833C18.4055 134.283 21.3267 124.03 14.5896 120.382V120.382L16.2984 121.307C23.1977 125.043 30.4945 117.05 26.1468 110.519V110.519L26.6755 111.313C31.24 118.17 41.9355 114.659 41.5482 106.431V106.431Z" fill="#2DF8BB"/>
<path d="M90.2037 123.875C87.0811 121.039 86.9188 116.357 90.1293 113.712C96.8728 108.156 104.503 103.61 112.762 100.242C123.391 95.908 134.854 93.6099 146.497 93.479C158.14 93.3482 169.735 95.3872 180.619 99.4797C191.504 103.572 201.465 109.638 209.934 117.33C218.403 125.023 225.214 134.192 229.978 144.314C234.742 154.435 237.366 165.312 237.7 176.322C238.034 187.331 236.071 198.259 231.924 208.481C228.702 216.424 224.209 223.82 218.614 230.419C215.951 233.56 210.999 233.597 207.876 230.761L149.04 177.318L90.2037 123.875Z" fill="#FF881B"/>
<path d="M109.334 122.829C106.71 120.446 106.574 116.512 109.271 114.289C114.937 109.621 121.348 105.802 128.287 102.972C137.218 99.3303 146.85 97.3994 156.632 97.2894C166.415 97.1795 176.157 98.8928 185.303 102.331C194.448 105.77 202.818 110.866 209.933 117.33C217.049 123.793 222.772 131.497 226.775 140.002C230.778 148.506 232.983 157.645 233.263 166.896C233.544 176.146 231.895 185.328 228.41 193.917C225.703 200.591 221.928 206.805 217.227 212.349C214.989 214.989 210.829 215.02 208.205 212.636L158.769 167.733L109.334 122.829Z" fill="#FFB651"/>
<path d="M137.531 121.288C135.643 119.573 135.545 116.742 137.486 115.142C141.564 111.782 146.178 109.033 151.173 106.997C157.6 104.376 164.532 102.986 171.573 102.907C178.613 102.828 185.625 104.061 192.207 106.536C198.789 109.01 204.813 112.679 209.934 117.33C215.055 121.982 219.174 127.527 222.055 133.648C224.936 139.768 226.523 146.345 226.725 153.003C226.926 159.661 225.74 166.269 223.232 172.45C221.283 177.254 218.567 181.726 215.183 185.717C213.573 187.616 210.578 187.638 208.69 185.923L173.111 153.606L137.531 121.288Z" fill="#2DF8BB"/>
<ellipse cx="98.1202" cy="337.488" rx="280.767" ry="129.348" transform="rotate(17.7851 98.1202 337.488)" fill="#B3B0FF"/>
<ellipse opacity="0.2" cx="86.0953" cy="374.974" rx="280.767" ry="129.348" transform="rotate(17.7851 86.0953 374.974)" fill="#736EF7"/>
<ellipse opacity="0.2" cx="65.9113" cy="437.895" rx="280.767" ry="129.348" transform="rotate(17.7851 65.9113 437.895)" fill="#736EF7"/>
<path d="M96.5734 34.7782C97.2478 28.363 104.614 25.0836 109.832 28.8752L131.145 44.3603C136.363 48.152 135.52 56.1709 129.627 58.7945L105.561 69.5089C99.6678 72.1325 93.1447 67.3929 93.8191 60.9777L96.5734 34.7782Z" fill="#FFB651"/>
<rect x="291.315" y="70.9199" width="85.18" height="59.4054" rx="23.5684" transform="rotate(40.9934 291.315 70.9199)" fill="#FFB651"/>
<rect x="162.729" y="-40.832" width="85.18" height="59.4054" rx="23.5684" transform="rotate(40.9934 162.729 -40.832)" fill="#FF881B"/>
<path d="M216.014 27.7107C222.603 20.1289 233.366 17.3656 242.45 21.6533C258.432 29.1964 270.166 37.9371 282.751 56.7781C288.26 65.0258 286.982 75.9049 280.476 83.3911L262.452 104.131C256.313 111.194 246.502 114.076 237.749 110.763C208.649 99.7487 199.427 88.592 192.783 72.67C189.535 64.887 191.465 55.9582 196.997 49.5927L216.014 27.7107Z" fill="#FF74BE"/>
<rect width="113.103" height="113.103" rx="20.9487" transform="matrix(-0.0013244 0.999999 -0.992951 -0.118528 69.144 -28.2065)" fill="#2DF8BB"/>
<rect width="86.9426" height="86.9426" rx="20.9487" transform="matrix(-0.0013244 0.999999 -0.992951 -0.118528 43.1675 -31.3071)" fill="#FF74BE"/>
<rect width="56.5517" height="56.5517" rx="20.9487" transform="matrix(-0.0013244 0.999999 -0.992951 -0.118528 12.9902 -34.9102)" fill="#645FFF"/>
</g>
<defs>
<clipPath id="clip0_363_14646">
<rect width="320" height="320" rx="16" fill="white"/>
</clipPath>
</defs>
</svg>
