<svg width="320" height="320" viewBox="0 0 320 320" fill="none" xmlns="http://www.w3.org/2000/svg">
<g clip-path="url(#clip0_363_14647)">
<rect width="320" height="320" rx="16" fill="#FF74BE"/>
<ellipse cx="78.8384" cy="251.581" rx="214.781" ry="115.477" transform="rotate(58.532 78.8384 251.581)" fill="#FFB0E9"/>
<ellipse cx="43.5284" cy="261.215" rx="204.565" ry="115.477" transform="rotate(58.532 43.5284 261.215)" fill="#FDA3E4"/>
<ellipse cx="-8.5268" cy="289.17" rx="201.235" ry="115.477" transform="rotate(58.532 -8.5268 289.17)" fill="#FC98E0"/>
<path d="M97.3196 94.6781C93.7587 91.3936 93.8749 85.6973 97.6193 82.6235L158.747 32.4441C162.13 29.6667 167.124 30.1579 169.902 33.5413L269.769 155.197C272.598 158.643 272.029 163.743 268.51 166.481L204.919 215.961C201.179 218.871 195.729 217.851 193.249 213.812C162.02 162.943 141.143 135.1 97.3196 94.6781Z" fill="#2DF8BB"/>
<path d="M108.763 98.9604C105.687 96.1231 105.787 91.2024 109.022 88.5471L161.827 45.1997C164.749 42.8004 169.064 43.2248 171.463 46.1475L257.733 151.239C260.177 154.216 259.685 158.622 256.646 160.987L201.713 203.73C198.482 206.244 193.774 205.363 191.632 201.875C164.654 157.931 146.62 133.879 108.763 98.9604Z" fill="#645FFF"/>
<path d="M137.368 100.502C134.017 95.8616 132.684 89.0233 137.108 85.3916L152.493 72.7627C157.535 68.6234 164.978 69.3555 169.117 74.3978V74.3978C173.279 79.4679 172.513 86.9581 167.411 91.0806L151.224 104.159C146.843 107.699 140.666 105.068 137.368 100.502V100.502Z" fill="#2DF8BB"/>
<path d="M163.027 131.104C154.817 122.499 155.27 108.668 164.462 101.122L166.008 99.8531C174.466 92.9095 186.952 94.1376 193.896 102.596L230.466 147.146C237.568 155.797 236.1 168.609 227.225 175.429L224.976 177.158C215.784 184.222 202.57 181.875 196.041 172.294C185.379 156.65 176.006 144.706 163.027 131.104Z" fill="#FFB651"/>
<rect x="313.651" y="202.201" width="85.3749" height="85.3749" rx="31.0218" transform="rotate(106.158 313.651 202.201)" fill="#645FFF"/>
<rect x="304.979" y="199.688" width="76.3458" height="76.3458" rx="27.741" transform="rotate(106.158 304.979 199.688)" fill="#FFB651"/>
<rect x="288.018" y="194.774" width="58.687" height="58.687" rx="27.741" transform="rotate(106.158 288.018 194.774)" fill="#FF881B"/>
<path d="M254.822 206.482C254.666 208.073 255.132 209.664 256.124 210.919V210.919C260.859 216.91 252.656 224.48 247.064 219.28L242.747 215.267C241.614 214.214 240.149 213.59 238.605 213.502L235.129 213.305C221.065 212.509 214.576 195.443 224.557 185.503L229.077 181.001C230.77 179.315 232.822 178.033 235.079 177.251V177.251C246.014 173.461 257.197 182.276 256.067 193.794L254.822 206.482Z" fill="#2DF8BB"/>
</g>
<defs>
<clipPath id="clip0_363_14647">
<rect width="320" height="320" rx="16" fill="white"/>
</clipPath>
</defs>
</svg>
