<svg width="320" height="320" viewBox="0 0 320 320" fill="none" xmlns="http://www.w3.org/2000/svg">
<g clip-path="url(#clip0_475_26193)">
<rect width="320" height="320" rx="16" fill="#FF881B"/>
<ellipse opacity="0.7" cx="148.531" cy="272.023" rx="214.128" ry="123.705" transform="rotate(17.0404 148.531 272.023)" fill="#FFB46F"/>
<ellipse opacity="0.4" cx="127.76" cy="305.036" rx="203.943" ry="123.705" transform="rotate(17.0404 127.76 305.036)" fill="#FF881B"/>
<ellipse opacity="0.42" cx="106.066" cy="364.486" rx="200.623" ry="123.705" transform="rotate(17.0404 106.066 364.486)" fill="#FFB46F"/>
<path d="M150 103.412C150 126.282 134.273 138 102.517 138C70.7604 138 35 126.282 35 103.412C35 80.5406 60.7436 62 92.5 62C124.256 62 150 80.5406 150 103.412Z" fill="#2DF8BB"/>
<path d="M131 102.693C131 120.749 120.47 130 99.2069 130C77.9439 130 54 120.749 54 102.693C54 84.6373 71.237 70 92.5 70C113.763 70 131 84.6373 131 102.693Z" fill="#FF74BE"/>
<path d="M92 88V88C92 93.8013 98.8607 96.8725 103.188 93.0081L106.871 89.7182V89.7182C103.477 92.7497 106.641 98.263 110.971 96.862L118.335 94.479V94.479C114.36 95.7654 115.463 101.665 119.635 101.427L123.767 101.192L122.341 101.273C118.131 101.513 117.77 107.581 121.921 108.319V108.319L115.637 107.202C111.413 106.451 109.429 112.222 113.22 114.228V114.228L106.544 110.696C102.121 108.355 97.3288 113.134 99.6581 117.564V117.564V117.564C96.4152 111.397 87.5848 111.397 84.3419 117.564V117.564V117.564C86.6712 113.134 81.8795 108.355 77.4556 110.696L70.7801 114.228V114.228C74.5715 112.222 72.5866 106.451 68.3634 107.202L62.0795 108.319V108.319C66.2304 107.581 65.8687 101.513 61.6595 101.273L60.2333 101.192L64.365 101.427C68.5371 101.665 69.6404 95.7654 65.6645 94.479V94.479L73.0294 96.862C77.3594 98.263 80.5232 92.7497 77.1289 89.7182V89.7182L80.8124 93.0081C85.1393 96.8725 92 93.8013 92 88V88Z" fill="#2DF8BB"/>
<path d="M330.615 179.849C322.325 201.165 303.571 206.444 274.279 195.052C244.986 183.66 216.247 159.911 224.537 138.596C232.826 117.28 263.293 109.235 292.586 120.627C321.878 132.019 338.904 158.534 330.615 179.849Z" fill="#645FFF"/>
<path d="M313.349 172.364C306.805 189.193 293.739 194.037 274.125 186.409C254.512 178.781 235.779 161.57 242.323 144.742C248.868 127.914 270.073 120.455 289.686 128.083C309.3 135.711 319.894 155.536 313.349 172.364Z" fill="#2DF8BB"/>
<path d="M282.7 144.68V144.68C280.606 150.065 285.884 155.383 291.285 153.33L295.795 151.616V151.616C291.548 153.23 292.522 159.499 297.059 159.749L304.644 160.166V160.166C300.476 159.937 299.378 165.828 303.35 167.116L307.221 168.371L305.884 167.937C301.878 166.639 299.341 172.154 302.935 174.351V174.351L297.583 171.08C293.928 168.845 289.978 173.484 292.768 176.736V176.736L287.952 171.122C284.701 167.332 278.506 170.017 279.049 174.981V174.981V174.981C278.297 168.108 270.119 164.927 264.921 169.487V169.487V169.487C268.675 166.194 265.921 160.028 260.963 160.626L253.62 161.512V161.512C257.874 160.999 258.097 154.911 253.892 154.088L247.736 152.884V152.884C251.87 153.693 253.727 147.913 249.895 146.163L248.617 145.579L252.319 147.27C256.117 149.004 259.288 143.918 256.06 141.271V141.271L261.934 146.089C265.447 148.97 270.401 145.006 268.36 140.947V140.947L270.527 145.258C273.122 150.42 280.606 150.065 282.7 144.68V144.68Z" fill="#645FFF"/>
<path d="M50.4494 -44.5925C53.6413 -44.4444 56.525 -42.6425 58.0574 -39.8385L84.6784 8.8732C85.7654 10.8622 86.0757 13.1838 85.5494 15.3884L79.2016 41.9765C78.5345 44.7706 76.5943 47.0896 73.9616 48.2393L6.81514 77.5627C2.4714 79.4597 -2.60194 77.7269 -4.87763 73.569L-39.2792 10.7146C-40.8683 7.81119 -40.7662 4.27613 -39.0123 1.46927L-11.3576 -42.7875C-9.60479 -45.5926 -6.47494 -47.2338 -3.17078 -47.0805L50.4494 -44.5925Z" fill="#2DF8BB"/>
<path d="M46.743 -16.6298C50.3209 -16.6656 53.516 -14.9384 55.0472 -12.1406L70.1861 15.5198C71.1964 17.3658 71.3897 19.5158 70.7295 21.564L65.7781 36.9239C64.9787 39.4037 63.0039 41.5034 60.3848 42.6584L16.2305 62.1297C11.4371 64.2435 5.83647 62.671 3.59463 58.582L-15.6089 23.5558C-17.0625 20.9046 -16.8009 17.6895 -14.9196 15.0849L4.67562 -12.0444C6.55566 -14.6473 9.77823 -16.2598 13.1678 -16.2937L46.743 -16.6298Z" fill="#645FFF"/>
<path d="M43.8923 4.01301C47.1442 4.11338 50.0262 5.6714 51.556 8.15591L60.5751 22.8038C61.7042 24.6375 61.9977 26.8195 61.3982 28.9225L59.7953 34.5451C59.015 37.2823 56.8098 39.5879 53.8795 40.73L31.7051 49.3729C27.1442 51.1507 21.9994 49.6969 19.7093 45.9833L8.8078 28.3055C7.14107 25.6028 7.32947 22.2194 9.29847 19.4933L17.7964 7.72804C19.7642 5.00363 23.1939 3.37413 26.7306 3.48329L43.8923 4.01301Z" fill="#FF74BE"/>
<rect x="220.809" y="104.752" width="57.5685" height="51.552" rx="24.7897" transform="rotate(106.694 220.809 104.752)" fill="#645FFF"/>
<rect x="205.398" y="111.921" width="34.9809" height="26.1465" rx="13.0732" transform="rotate(106.694 205.398 111.921)" fill="#2DF8BB"/>
<rect x="258.999" y="-3.99756" width="57.5685" height="62.2349" rx="24.7897" transform="rotate(106.694 258.999 -3.99756)" fill="#645FFF"/>
<rect x="245.381" y="3.51758" width="35.3477" height="40.4642" rx="17.6739" transform="rotate(106.694 245.381 3.51758)" fill="#FFB651"/>
<path d="M221.915 44.9821C231.299 47.7962 238.662 55.8622 238.633 65.6586C238.605 74.7771 236.64 82.7883 230.503 92.2797C225.269 100.374 214.905 102.981 205.673 100.212L185.315 94.1073C176.738 91.535 169.944 84.5557 168.893 75.6628C166.819 58.122 170.688 49.8488 178.25 42.6716C183.956 37.2562 192.413 36.1344 199.948 38.3941L221.915 44.9821Z" fill="#2DF8BB"/>
<rect x="232.368" y="60.1958" width="34.9809" height="50.1847" rx="17.4905" transform="rotate(106.694 232.368 60.1958)" fill="#FF74BE"/>
<rect x="275.294" y="37" width="61" height="75" rx="5" transform="rotate(14.9074 275.294 37)" fill="#FFB651"/>
<rect x="275.294" y="37" width="61" height="14.0863" rx="5" transform="rotate(14.9074 275.294 37)" fill="#FF74BE"/>
<path d="M162.818 -32.7146C166.677 -32.9116 170.219 -30.795 171.726 -27.3927L187.629 8.52647C188.826 11.2292 188.556 14.3504 186.908 16.8726L160.449 57.3565C158.801 59.8787 155.985 61.4789 152.92 61.6353L112.182 63.7146C108.323 63.9116 104.781 61.795 103.274 58.3927L87.3707 22.4735C86.174 19.7708 86.4439 16.6496 88.0923 14.1274L114.551 -26.3565C116.199 -28.8787 119.015 -30.4789 122.08 -30.6353L162.818 -32.7146Z" fill="#FFB651"/>
<path d="M161.722 -26.3667C165.926 -26.7938 169.853 -24.4479 171.294 -20.6483L181.316 5.77367C182.305 8.38102 181.973 11.3051 180.417 13.6862L158.453 47.2918C156.897 49.6729 154.294 51.2405 151.41 51.5335L122.178 54.5035C117.974 54.9306 114.048 52.5847 112.606 48.7851L102.584 22.3632C101.595 19.7558 101.928 16.8317 103.484 14.4506L125.447 -19.1549C127.003 -21.5361 129.606 -23.1036 132.491 -23.3967L161.722 -26.3667Z" fill="#FF74BE"/>
</g>
<defs>
<clipPath id="clip0_475_26193">
<rect width="320" height="320" rx="16" fill="white"/>
</clipPath>
</defs>
</svg>
